# File created by Blade
# Date/Time:  Thu Jan 22 16:31:11 2015
# Frame Rate: 120.000 fps
#------------------------------------------------------
:FULLY-SPECIFIED
:DEGREES
479
root 26.293850 18.078223 -0.820448 1.318883 27.149600 -24.055837
RightUpLeg 15.796831 -9.345723 -33.905622
RightLeg -0.748201 -0.000000 0.000000
RightFoot -16.846301 -13.958779 38.848408
RightToeBase 16.659516 -0.000000 -0.000000
LeftUpLeg -105.717634 29.198237 4.738336
LeftLeg 132.195783 -0.000000 -0.000000
LeftFoot -35.670446 5.274062 -18.032368
LeftToeBase -10.085425 -0.000000 0.000000
Spine 32.011388 -2.543421 -50.661811
RightShoulder -9.014614 4.789350 -50.658825
RightArm 3.427754 43.672832 -2.201486
RightForeArm -2.418090 -0.000000 18.485175
RightHand 13.342830 -0.000000 -49.023719
RightHandThumb1 -24.326973 -0.000000 -32.862282
LeftShoulder -18.032719 35.945199 13.944151
LeftArm 82.362981 -46.180784 -125.531509
LeftForeArm -8.780674 -0.000000 14.793173
LeftHand -28.153869 -0.000000 100.981066
LeftHandThumb1 -26.253704 0.000000 33.147579
Head 3.717594 6.181559 -54.682074
480
root 26.301721 18.077672 -0.811740 1.363569 27.130482 -23.997126
RightUpLeg 15.791213 -9.353869 -33.961924
RightLeg -0.760082 -0.000000 0.000000
RightFoot -16.829036 -13.983312 38.839190
RightToeBase 16.689837 -0.000000 -0.000000
LeftUpLeg -105.684501 29.182548 4.769836
LeftLeg 132.226087 -0.000000 -0.000000
LeftFoot -35.597612 5.151261 -18.186786
LeftToeBase -10.189816 -0.000000 0.000000
Spine 32.004014 -2.533697 -50.731526
RightShoulder -9.048776 4.737468 -50.676964
RightArm 3.529935 43.711454 -2.069307
RightForeArm -2.273779 -0.000000 18.436801
RightHand 13.373024 -0.000000 -49.104770
RightHandThumb1 -24.326973 -0.000000 -32.862282
LeftShoulder -17.985208 36.033255 13.990909
LeftArm 82.407163 -46.206249 -125.577698
LeftForeArm -8.844479 -0.000000 14.732948
LeftHand -28.193085 -0.000000 100.953125
LeftHandThumb1 -26.253704 0.000000 33.147579
Head 3.811142 6.273759 -54.616588
481
root 26.308981 18.078160 -0.803601 1.417683 27.106907 -23.944378
RightUpLeg 15.768995 -9.341690 -34.001025
RightLeg -0.768067 -0.000000 0.000000
RightFoot -16.831810 -14.023707 38.848610
RightToeBase 16.691294 -0.000000 -0.000000
LeftUpLeg -105.661619 29.167394 4.805610
LeftLeg 132.255310 -0.000000 -0.000000
LeftFoot -35.537921 5.049886 -18.308561
LeftToeBase -10.266371 -0.000000 0.000000
Spine 31.991386 -2.540732 -50.813407
RightShoulder -9.050301 4.746688 -50.658314
RightArm 3.544483 43.728950 -2.076088
RightForeArm -1.776678 -0.000000 18.347153
RightHand 13.685081 0.000000 -48.996448
RightHandThumb1 -24.326973 -0.000000 -32.862282
LeftShoulder -17.978940 36.075023 14.037804
LeftArm 82.443806 -46.237832 -125.691889
LeftForeArm -8.864534 0.000000 14.741055
LeftHand -28.166394 0.000000 100.854831
LeftHandThumb1 -26.253704 0.000000 33.147579
Head 3.891243 6.320584 -54.569254
482
root 26.315202 18.078248 -0.795063 1.461187 27.085753 -23.896466
RightUpLeg 15.755076 -9.339059 -34.041060
RightLeg -0.771775 -0.000000 0.000000
RightFoot -16.829225 -14.041986 38.841231
RightToeBase 16.714783 -0.000000 -0.000000
LeftUpLeg -105.636295 29.158663 4.841595
LeftLeg 132.283968 -0.000000 -0.000000
LeftFoot -35.465398 4.940034 -18.442176
LeftToeBase -10.390805 -0.000000 0.000000
Spine 31.970128 -2.545728 -50.887860
RightShoulder -9.082772 4.630948 -50.642519
RightArm 3.694047 43.927340 -1.948880
RightForeArm -1.754490 0.000000 18.271177
RightHand 13.649095 -0.000000 -49.068272
RightHandThumb1 -24.326973 -0.000000 -32.862282
LeftShoulder -17.937988 36.128280 14.089097
LeftArm 82.503352 -46.294493 -125.827162
LeftForeArm -8.852156 -0.000000 14.755643
LeftHand -28.188135 0.000000 100.803613
LeftHandThumb1 -26.253704 0.000000 33.147579
Head 3.999068 6.513508 -54.524733
483
root 26.321455 18.078207 -0.786202 1.493360 27.063758 -23.849102
RightUpLeg 15.757050 -9.274305 -34.065994
RightLeg -0.795019 -0.000000 0.000000
RightFoot -16.858706 -14.103811 38.851519
RightToeBase 16.715464 -0.000000 -0.000000
LeftUpLeg -105.601356 29.162056 4.868842
LeftLeg 132.311878 -0.000000 -0.000000
LeftFoot -35.406362 4.833045 -18.561390
LeftToeBase -10.473239 -0.000000 0.000000
Spine 31.967460 -2.527776 -50.955449
RightShoulder -9.079048 4.708555 -50.659809
RightArm 3.715092 43.981258 -1.887317
RightForeArm -1.918383 -0.000000 18.256191
RightHand 13.532118 -0.000000 -49.207794
RightHandThumb1 -24.326973 -0.000000 -32.862282
LeftShoulder -17.943272 36.178265 14.111194
LeftArm 82.558261 -46.293870 -125.945973
LeftForeArm -8.821464 -0.000000 14.802815
LeftHand -28.174908 0.000000 100.742892
LeftHandThumb1 -26.253704 0.000000 33.147579
Head 4.093777 6.539786 -54.450383
484
root 26.327912 18.077394 -0.777575 1.518894 27.044070 -23.799777
RightUpLeg 15.760778 -9.240819 -34.105445
RightLeg -0.802909 -0.000000 0.000000
RightFoot -16.861687 -14.120397 38.844993
RightToeBase 16.691865 -0.000000 -0.000000
LeftUpLeg -105.561943 29.160565 4.897232
LeftLeg 132.340616 -0.000000 -0.000000
LeftFoot -35.346311 4.737643 -18.648332
LeftToeBase -10.619956 -0.000000 0.000000
Spine 31.973872 -2.501431 -51.027709
RightShoulder -9.129774 4.766262 -50.671202
RightArm 3.844016 43.990807 -1.764090
RightForeArm -2.012391 -0.000000 18.199581
RightHand 13.439056 -0.000000 -49.391029
RightHandThumb1 -24.326973 -0.000000 -32.862282
LeftShoulder -17.970448 36.252565 14.131855
LeftArm 82.579322 -46.258797 -126.011121
LeftForeArm -8.877718 -0.000000 14.857297
LeftHand -28.175876 0.000000 100.671542
LeftHandThumb1 -26.253704 0.000000 33.147579
Head 4.178237 6.526565 -54.403122
485
root 26.335178 18.077654 -0.769009 1.554873 27.023552 -23.731972
RightUpLeg 15.752821 -9.249882 -34.176233
RightLeg -0.788789 -0.000000 0.000000
RightFoot -16.868995 -14.093840 38.895387
RightToeBase 16.729779 -0.000000 -0.000000
LeftUpLeg -105.517719 29.155745 4.896737
LeftLeg 132.363208 -0.000000 -0.000000
LeftFoot -35.345696 4.731901 -18.657630
LeftToeBase -10.489245 -0.000000 0.000000
Spine 31.977282 -2.477111 -51.127950
RightShoulder -9.155256 4.803291 -50.650731
RightArm 3.887119 44.173902 -1.726455
RightForeArm -1.679812 -0.000000 18.194609
RightHand 13.647925 -0.000000 -49.252803
RightHandThumb1 -24.326973 -0.000000 -32.862282
LeftShoulder -17.973861 36.278152 14.196003
LeftArm 82.559122 -46.266690 -126.049300
LeftForeArm -8.867727 0.000000 14.853647
LeftHand -28.141335 0.000000 100.592427
LeftHandThumb1 -26.253704 0.000000 33.147579
Head 4.272781 6.592823 -54.324945
486
root 26.340194 18.077650 -0.759935 1.567105 27.000462 -23.699305
RightUpLeg 15.747584 -9.238107 -34.207232
RightLeg -0.773329 -0.000000 0.000000
RightFoot -16.866026 -14.086761 38.877827
RightToeBase 16.678331 -0.000000 -0.000000
LeftUpLeg -105.473312 29.164088 4.940291
LeftLeg 132.391342 -0.000000 -0.000000
LeftFoot -35.298492 4.633054 -18.748717
LeftToeBase -10.566323 -0.000000 0.000000
Spine 31.967551 -2.428362 -51.169568
RightShoulder -9.156735 4.790494 -50.649934
RightArm 3.901193 44.298161 -1.706120
RightForeArm -1.756072 0.000000 18.173224
RightHand 13.609244 0.000000 -49.367268
RightHandThumb1 -24.326973 -0.000000 -32.862282
LeftShoulder -17.975016 36.346179 14.219298
LeftArm 82.621824 -46.224239 -126.116559
LeftForeArm -8.856257 0.000000 14.845307
LeftHand -28.157650 -0.000000 100.519526
LeftHandThumb1 -26.253704 0.000000 33.147579
Head 4.450104 6.657964 -54.272743
